<svg xmlns="http://www.w3.org/2000/svg" xmlns:xlink="http://www.w3.org/1999/xlink" contentStyleType="text/css" data-diagram-type="ACTIVITY" height="891px" preserveAspectRatio="none" style="width:490px;height:891px;background:#FEFEFE;" version="1.1" viewBox="0 0 490 891" width="490px" zoomAndPan="magnify"><?plantuml 1.2026.3beta6?><defs/><g><rect fill="#FEFEFE" height="891" style="stroke:none;stroke-width:1;" width="490" x="0" y="0"/><g class="title" data-source-line="5"><text fill="#000000" font-family="sans-serif" font-size="14" font-weight="700" lengthAdjust="spacing" textLength="195.6508" x="146.3006" y="32.9951">RAG (&#26816;&#32034;&#22686;&#24378;&#29983;&#25104;) &#23436;&#25972;&#27969;&#31243;</text></g><ellipse cx="179.1641" cy="62.2969" fill="#222222" rx="10" ry="10" style="stroke:#222222;stroke-width:1;"/><path d="M260.9053,88.5664 L260.9053,112.2656 L240.9053,116.2656 L260.9053,120.2656 L260.9053,143.9648 A0,0 0 0 0 260.9053,143.9648 L437.645,143.9648 A0,0 0 0 0 437.645,143.9648 L437.645,98.5664 L427.645,88.5664 L260.9053,88.5664 A0,0 0 0 0 260.9053,88.5664" fill="#FEFFDD" style="stroke:#181818;stroke-width:0.5;"/><path d="M427.645,88.5664 L427.645,98.5664 L437.645,98.5664 L427.645,88.5664" fill="#FEFFDD" style="stroke:#181818;stroke-width:0.5;"/><text fill="#000000" font-family="sans-serif" font-size="13" lengthAdjust="spacing" textLength="70.0845" x="266.9053" y="105.6333">PDFLoader</text><text fill="#000000" font-family="sans-serif" font-size="13" lengthAdjust="spacing" textLength="70.9795" x="266.9053" y="120.7661">CSVLoader</text><text fill="#000000" font-family="sans-serif" font-size="13" lengthAdjust="spacing" textLength="155.7397" x="266.9053" y="135.8989">CheerioWebBaseLoader</text><rect fill="#E3F2FD" height="47.9375" rx="12.5" ry="12.5" style="stroke:#1565C0;stroke-width:0.5;" width="123.4824" x="117.4229" y="92.2969"/><text fill="#000000" font-family="sans-serif" font-size="12" lengthAdjust="spacing" textLength="48.0004" x="127.4229" y="113.4355">&#21152;&#36733;&#25991;&#26723;</text><text fill="#000000" font-family="sans-serif" font-size="12" lengthAdjust="spacing" textLength="103.4824" x="127.4229" y="127.4043">DocumentLoader</text><path d="M244.2383,160.2344 L244.2383,183.9336 L224.2383,187.9336 L244.2383,191.9336 L244.2383,215.6328 A0,0 0 0 0 244.2383,215.6328 L469.252,215.6328 A0,0 0 0 0 469.252,215.6328 L469.252,170.2344 L459.252,160.2344 L244.2383,160.2344 A0,0 0 0 0 244.2383,160.2344" fill="#FEFFDD" style="stroke:#181818;stroke-width:0.5;"/><path d="M459.252,160.2344 L459.252,170.2344 L469.252,170.2344 L459.252,160.2344" fill="#FEFFDD" style="stroke:#181818;stroke-width:0.5;"/><text fill="#000000" font-family="sans-serif" font-size="13" lengthAdjust="spacing" textLength="204.0137" x="250.2383" y="177.3013">RecursiveCharacterTextSplitter</text><text fill="#000000" font-family="sans-serif" font-size="13" lengthAdjust="spacing" textLength="107.6753" x="250.2383" y="192.4341">chunkSize: 1000</text><text fill="#000000" font-family="sans-serif" font-size="13" lengthAdjust="spacing" textLength="123.8174" x="250.2383" y="207.5669">chunkOverlap: 200</text><rect fill="#E3F2FD" height="47.9375" rx="12.5" ry="12.5" style="stroke:#1565C0;stroke-width:0.5;" width="90.1484" x="134.0898" y="163.9648"/><text fill="#000000" font-family="sans-serif" font-size="12" lengthAdjust="spacing" textLength="48.0004" x="144.0898" y="185.1035">&#20998;&#21106;&#25991;&#26412;</text><text fill="#000000" font-family="sans-serif" font-size="12" lengthAdjust="spacing" textLength="70.1484" x="144.0898" y="199.0723">TextSplitter</text><path d="M246.3213,239.4688 L246.3213,255.6016 L226.3213,259.6016 L246.3213,263.6016 L246.3213,279.7344 A0,0 0 0 0 246.3213,279.7344 L395.2773,279.7344 A0,0 0 0 0 395.2773,279.7344 L395.2773,249.4688 L385.2773,239.4688 L246.3213,239.4688 A0,0 0 0 0 246.3213,239.4688" fill="#FEFFDD" style="stroke:#181818;stroke-width:0.5;"/><path d="M385.2773,239.4688 L385.2773,249.4688 L395.2773,249.4688 L385.2773,239.4688" fill="#FEFFDD" style="stroke:#181818;stroke-width:0.5;"/><text fill="#000000" font-family="sans-serif" font-size="13" lengthAdjust="spacing" textLength="127.9561" x="252.3213" y="256.5356">OpenAIEmbeddings</text><text fill="#000000" font-family="sans-serif" font-size="13" lengthAdjust="spacing" textLength="126.5596" x="252.3213" y="271.6685">OllamaEmbeddings</text><rect fill="#E3F2FD" height="47.9375" rx="12.5" ry="12.5" style="stroke:#1565C0;stroke-width:0.5;" width="94.3145" x="132.0068" y="235.6328"/><text fill="#000000" font-family="sans-serif" font-size="12" lengthAdjust="spacing" textLength="48.0004" x="142.0068" y="256.7715">&#29983;&#25104;&#21521;&#37327;</text><text fill="#000000" font-family="sans-serif" font-size="12" lengthAdjust="spacing" textLength="74.3145" x="142.0068" y="270.7402">Embeddings</text><path d="M244.7393,299.8398 L244.7393,323.5391 L224.7393,327.5391 L244.7393,331.5391 L244.7393,355.2383 A0,0 0 0 0 244.7393,355.2383 L391.3086,355.2383 A0,0 0 0 0 391.3086,355.2383 L391.3086,309.8398 L381.3086,299.8398 L244.7393,299.8398 A0,0 0 0 0 244.7393,299.8398" fill="#FEFFDD" style="stroke:#181818;stroke-width:0.5;"/><path d="M381.3086,299.8398 L381.3086,309.8398 L391.3086,309.8398 L381.3086,299.8398" fill="#FEFFDD" style="stroke:#181818;stroke-width:0.5;"/><text fill="#000000" font-family="sans-serif" font-size="13" lengthAdjust="spacing" textLength="59.0269" x="250.7393" y="316.9067">Pinecone</text><text fill="#000000" font-family="sans-serif" font-size="13" lengthAdjust="spacing" textLength="51.2446" x="250.7393" y="332.0396">Chroma</text><text fill="#000000" font-family="sans-serif" font-size="13" lengthAdjust="spacing" textLength="125.5693" x="250.7393" y="347.1724">Supabase pgvector</text><rect fill="#E3F2FD" height="47.9375" rx="12.5" ry="12.5" style="stroke:#1565C0;stroke-width:0.5;" width="91.1504" x="133.5889" y="303.5703"/><text fill="#000000" font-family="sans-serif" font-size="12" lengthAdjust="spacing" textLength="48.0004" x="143.5889" y="324.709">&#23384;&#20648;&#21521;&#37327;</text><text fill="#000000" font-family="sans-serif" font-size="12" lengthAdjust="spacing" textLength="71.1504" x="143.5889" y="338.6777">VectorStore</text><rect fill="#E3F2FD" height="47.9375" rx="12.5" ry="12.5" style="stroke:#1565C0;stroke-width:0.5;" width="87.6348" x="135.3467" y="375.2383"/><text fill="#000000" font-family="sans-serif" font-size="12" lengthAdjust="spacing" textLength="48.0004" x="145.3467" y="396.377">&#29992;&#25143;&#26597;&#35810;</text><text fill="#000000" font-family="sans-serif" font-size="12" lengthAdjust="spacing" textLength="67.6348" x="145.3467" y="410.3457">User Query</text><rect fill="#555555" height="6" rx="2.5" ry="2.5" style="stroke:#555555;stroke-width:1;" width="328.3281" x="16" y="443.1758"/><rect fill="#E3F2FD" height="47.9375" rx="12.5" ry="12.5" style="stroke:#1565C0;stroke-width:0.5;" width="122.041" x="28" y="469.1758"/><text fill="#000000" font-family="sans-serif" font-size="12" lengthAdjust="spacing" textLength="60.0005" x="38" y="490.3145">&#30456;&#20284;&#24615;&#26816;&#32034;</text><text fill="#000000" font-family="sans-serif" font-size="12" lengthAdjust="spacing" textLength="102.041" x="38" y="504.2832">Similarity Search</text><rect fill="#E3F2FD" height="47.9375" rx="12.5" ry="12.5" style="stroke:#1565C0;stroke-width:0.5;" width="82.3029" x="47.869" y="552.1133"/><text fill="#000000" font-family="sans-serif" font-size="12" lengthAdjust="spacing" textLength="62.3029" x="57.869" y="573.252">&#33719;&#21462; Top-K</text><text fill="#000000" font-family="sans-serif" font-size="12" lengthAdjust="spacing" textLength="48.0004" x="57.869" y="587.2207">&#30456;&#20851;&#25991;&#26723;</text><rect fill="#E3F2FD" height="47.9375" rx="12.5" ry="12.5" style="stroke:#1565C0;stroke-width:0.5;" width="152.2871" x="178.041" y="510.6445"/><text fill="#000000" font-family="sans-serif" font-size="12" lengthAdjust="spacing" textLength="48.0004" x="188.041" y="531.7832">&#26597;&#35810;&#37325;&#20889;</text><text fill="#000000" font-family="sans-serif" font-size="12" lengthAdjust="spacing" textLength="132.2871" x="188.041" y="545.752">Query Transformation</text><rect fill="#555555" height="6" rx="2.5" ry="2.5" style="stroke:#555555;stroke-width:1;" width="328.3281" x="16" y="620.0508"/><rect fill="#E3F2FD" height="47.9375" rx="12.5" ry="12.5" style="stroke:#1565C0;stroke-width:0.5;" width="138.5762" x="109.876" y="646.0508"/><text fill="#000000" font-family="sans-serif" font-size="12" lengthAdjust="spacing" textLength="72.0005" x="119.876" y="667.1895">&#26500;&#24314;&#22686;&#24378;&#25552;&#31034;</text><text fill="#000000" font-family="sans-serif" font-size="12" lengthAdjust="spacing" textLength="118.5762" x="119.876" y="681.1582">Context + Question</text><rect fill="#E3F2FD" height="47.9375" rx="12.5" ry="12.5" style="stroke:#1565C0;stroke-width:0.5;" width="95.5394" x="131.3943" y="713.9883"/><text fill="#000000" font-family="sans-serif" font-size="12" lengthAdjust="spacing" textLength="75.5394" x="141.3943" y="735.127">LLM &#29983;&#25104;&#22238;&#31572;</text><text fill="#000000" font-family="sans-serif" font-size="12" lengthAdjust="spacing" textLength="71.8418" x="141.3943" y="749.0957">ChatOpenAI</text><rect fill="#E3F2FD" height="47.9375" rx="12.5" ry="12.5" style="stroke:#1565C0;stroke-width:0.5;" width="103.5898" x="127.3691" y="781.9258"/><text fill="#000000" font-family="sans-serif" font-size="12" lengthAdjust="spacing" textLength="48.0004" x="137.3691" y="803.0645">&#36755;&#20986;&#35299;&#26512;</text><text fill="#000000" font-family="sans-serif" font-size="12" lengthAdjust="spacing" textLength="83.5898" x="137.3691" y="817.0332">Output Parser</text><ellipse cx="179.1641" cy="860.8633" fill="none" rx="11" ry="11" style="stroke:#222222;stroke-width:1;"/><ellipse cx="179.1641" cy="860.8633" fill="#222222" rx="6" ry="6" style="stroke:#222222;stroke-width:1;"/><line style="stroke:#181818;stroke-width:1;" x1="179.1641" x2="179.1641" y1="72.2969" y2="92.2969"/><polygon fill="#181818" points="175.1641,82.2969,179.1641,92.2969,183.1641,82.2969,179.1641,86.2969" style="stroke:#181818;stroke-width:1;"/><line style="stroke:#181818;stroke-width:1;" x1="179.1641" x2="179.1641" y1="140.2344" y2="163.9648"/><polygon fill="#181818" points="175.1641,153.9648,179.1641,163.9648,183.1641,153.9648,179.1641,157.9648" style="stroke:#181818;stroke-width:1;"/><line style="stroke:#181818;stroke-width:1;" x1="179.1641" x2="179.1641" y1="211.9023" y2="235.6328"/><polygon fill="#181818" points="175.1641,225.6328,179.1641,235.6328,183.1641,225.6328,179.1641,229.6328" style="stroke:#181818;stroke-width:1;"/><line style="stroke:#181818;stroke-width:1;" x1="179.1641" x2="179.1641" y1="283.5703" y2="303.5703"/><polygon fill="#181818" points="175.1641,293.5703,179.1641,303.5703,183.1641,293.5703,179.1641,297.5703" style="stroke:#181818;stroke-width:1;"/><line style="stroke:#181818;stroke-width:1;" x1="179.1641" x2="179.1641" y1="351.5078" y2="375.2383"/><polygon fill="#181818" points="175.1641,365.2383,179.1641,375.2383,183.1641,365.2383,179.1641,369.2383" style="stroke:#181818;stroke-width:1;"/><line style="stroke:#181818;stroke-width:1;" x1="89.0205" x2="89.0205" y1="517.1133" y2="552.1133"/><polygon fill="#181818" points="85.0205,542.1133,89.0205,552.1133,93.0205,542.1133,89.0205,546.1133" style="stroke:#181818;stroke-width:1;"/><line style="stroke:#181818;stroke-width:1;" x1="89.0205" x2="89.0205" y1="449.1758" y2="469.1758"/><polygon fill="#181818" points="85.0205,459.1758,89.0205,469.1758,93.0205,459.1758,89.0205,463.1758" style="stroke:#181818;stroke-width:1;"/><line style="stroke:#181818;stroke-width:1;" x1="254.1846" x2="254.1846" y1="449.1758" y2="510.6445"/><polygon fill="#181818" points="250.1846,500.6445,254.1846,510.6445,258.1846,500.6445,254.1846,504.6445" style="stroke:#181818;stroke-width:1;"/><line style="stroke:#181818;stroke-width:1;" x1="89.0205" x2="89.0205" y1="600.0508" y2="620.0508"/><polygon fill="#181818" points="85.0205,610.0508,89.0205,620.0508,93.0205,610.0508,89.0205,614.0508" style="stroke:#181818;stroke-width:1;"/><line style="stroke:#181818;stroke-width:1;" x1="254.1846" x2="254.1846" y1="558.582" y2="620.0508"/><polygon fill="#181818" points="250.1846,610.0508,254.1846,620.0508,258.1846,610.0508,254.1846,614.0508" style="stroke:#181818;stroke-width:1;"/><line style="stroke:#181818;stroke-width:1;" x1="179.1641" x2="179.1641" y1="423.1758" y2="443.1758"/><polygon fill="#181818" points="175.1641,433.1758,179.1641,443.1758,183.1641,433.1758,179.1641,437.1758" style="stroke:#181818;stroke-width:1;"/><line style="stroke:#181818;stroke-width:1;" x1="179.1641" x2="179.1641" y1="626.0508" y2="646.0508"/><polygon fill="#181818" points="175.1641,636.0508,179.1641,646.0508,183.1641,636.0508,179.1641,640.0508" style="stroke:#181818;stroke-width:1;"/><line style="stroke:#181818;stroke-width:1;" x1="179.1641" x2="179.1641" y1="693.9883" y2="713.9883"/><polygon fill="#181818" points="175.1641,703.9883,179.1641,713.9883,183.1641,703.9883,179.1641,707.9883" style="stroke:#181818;stroke-width:1;"/><line style="stroke:#181818;stroke-width:1;" x1="179.1641" x2="179.1641" y1="761.9258" y2="781.9258"/><polygon fill="#181818" points="175.1641,771.9258,179.1641,781.9258,183.1641,771.9258,179.1641,775.9258" style="stroke:#181818;stroke-width:1;"/><line style="stroke:#181818;stroke-width:1;" x1="179.1641" x2="179.1641" y1="829.8633" y2="849.8633"/><polygon fill="#181818" points="175.1641,839.8633,179.1641,849.8633,183.1641,839.8633,179.1641,843.8633" style="stroke:#181818;stroke-width:1;"/><?plantuml-src RLBBRjD05DtFLup41eIGqgAoS5Pj7WWHb5A7il5cuWpnAFQCDHv7b5L1q8HdWYWLg2Y51DGiA4XGL1HIleOPft_1s4vfACYoT7Ncd7lkAsWGwYEEF5X5TgFEMKXhEUOo3iyK2_47WZyCP0lI969jwJIpSB4uNyp_Zybu3VCfQsxXqa8k0u0WmiLmPV4oFAi6wz5-N_PxSZoADdTKktiEoazFrCjzzUrkD7mCG20G5m0Oyj7RoU6XscgfTmEBvfaTUfYA4aCwVnPG9Z3afEu80E5olfZYEiwPgoUnWp4dx2QkBg40Js5CQp1MnnRj3VdmIspnvgD5A_YsC7sN2F6FmGgsGnwG9iuvkbjR4sR9cc0x8MsOv0usu5mcapb6oatCNUGRS5vZCyPfvxBx_AZLiMZ1g-9QZT1wSCgsx6EwUENaEOPS5tbe1ffjP--Ll3SyphgARS6ugNzyUbo4OfjHd4o8Cm_fm0nzLDL3WdwzcGZ_BdUesWTgvyFaSz-YDmBCuVKGyxKi0BSORsYv4Mr__pKUg_NTTC4MDOb7NCJrIK0J8suxsPWsUNOWErkmmlmBLosgHVB1rtJ5sIGLH7L4QCnCtOvQJ-N6QuicTh324GqqpKE2C9fDIamA08RgtPS_HkbTgKutUZ-oQ8vHeTS4pyVL1ga46ANIDJYT_tOlsjlKF0U9TDJn--Jd2zaQJNO7gjUrQ3aKVYZWCk91V1NwEfd_6m00?></g></svg>