<svg xmlns="http://www.w3.org/2000/svg" xmlns:xlink="http://www.w3.org/1999/xlink" contentStyleType="text/css" data-diagram-type="DESCRIPTION" height="710px" preserveAspectRatio="none" style="width:1630px;height:710px;background:#FEFEFE;" version="1.1" viewBox="0 0 1630 710" width="1630px" zoomAndPan="magnify"><?plantuml 1.2026.3beta6?><defs/><g><rect fill="#FEFEFE" height="710" style="stroke:none;stroke-width:1;" width="1630" x="0" y="0"/><g class="title" data-source-line="6"><text fill="#000000" font-family="sans-serif" font-size="14" font-weight="700" lengthAdjust="spacing" textLength="275.5494" x="673.947" y="22.9951">LangChain TypeScript &#26680;&#24515;&#32452;&#20214;&#20851;&#31995;&#22270;</text></g><!--cluster @langchain/core--><g class="cluster" data-qualified-name=".langchain.core" data-source-line="8" id="ent0002"><path d="M8.5,195.8969 L139.6426,195.8969 A3.75,3.75 0 0 1 142.1426,198.3969 L149.1426,218.1938 L769.5,218.1938 A2.5,2.5 0 0 1 772,220.6938 L772,443.1169 A2.5,2.5 0 0 1 769.5,445.6169 L8.5,445.6169 A2.5,2.5 0 0 1 6,443.1169 L6,198.3969 A2.5,2.5 0 0 1 8.5,195.8969" fill="#E1F5FE" style="stroke:#000000;stroke-width:1.5;"/><line style="stroke:#000000;stroke-width:1.5;" x1="6" x2="149.1426" y1="218.1938" y2="218.1938"/><text fill="#000000" font-family="sans-serif" font-size="14" font-weight="700" lengthAdjust="spacing" textLength="130.1426" x="10" y="210.892">@langchain/core</text></g><!--cluster @langchain/openai--><g class="cluster" data-qualified-name=".langchain.openai" data-source-line="16" id="ent0008"><path d="M371.5,509.1569 L521.6738,509.1569 A3.75,3.75 0 0 1 524.1738,511.6569 L531.1738,531.4538 L695.5,531.4538 A2.5,2.5 0 0 1 698,533.9538 L698,593.9469 A2.5,2.5 0 0 1 695.5,596.4469 L371.5,596.4469 A2.5,2.5 0 0 1 369,593.9469 L369,511.6569 A2.5,2.5 0 0 1 371.5,509.1569" fill="#E8F5E9" style="stroke:#000000;stroke-width:1.5;"/><line style="stroke:#000000;stroke-width:1.5;" x1="369" x2="531.1738" y1="531.4538" y2="531.4538"/><text fill="#000000" font-family="sans-serif" font-size="14" font-weight="700" lengthAdjust="spacing" textLength="149.1738" x="373" y="524.152">@langchain/openai</text></g><!--cluster langchain--><g class="cluster" data-qualified-name="langchain" data-source-line="21" id="ent0011"><path d="M542.5,43.2969 L620.2129,43.2969 A3.75,3.75 0 0 1 622.7129,45.7969 L629.7129,65.5938 L836.5,65.5938 A2.5,2.5 0 0 1 839,68.0938 L839,144.3969 A2.5,2.5 0 0 1 836.5,146.8969 L542.5,146.8969 A2.5,2.5 0 0 1 540,144.3969 L540,45.7969 A2.5,2.5 0 0 1 542.5,43.2969" fill="#FFF3E0" style="stroke:#000000;stroke-width:1.5;"/><line style="stroke:#000000;stroke-width:1.5;" x1="540" x2="629.7129" y1="65.5938" y2="65.5938"/><text fill="#000000" font-family="sans-serif" font-size="14" font-weight="700" lengthAdjust="spacing" textLength="76.7129" x="544" y="58.292">langchain</text></g><!--cluster @langchain/langgraph--><g class="cluster" data-qualified-name=".langchain.langgraph" data-source-line="26" id="ent0014"><path d="M938.5,204.0469 L1115.9219,204.0469 A3.75,3.75 0 0 1 1118.4219,206.5469 L1125.4219,226.3438 L1192.5,226.3438 A2.5,2.5 0 0 1 1195,228.8438 L1195,434.9669 A2.5,2.5 0 0 1 1192.5,437.4669 L938.5,437.4669 A2.5,2.5 0 0 1 936,434.9669 L936,206.5469 A2.5,2.5 0 0 1 938.5,204.0469" fill="#F3E5F5" style="stroke:#000000;stroke-width:1.5;"/><line style="stroke:#000000;stroke-width:1.5;" x1="936" x2="1125.4219" y1="226.3438" y2="226.3438"/><text fill="#000000" font-family="sans-serif" font-size="14" font-weight="700" lengthAdjust="spacing" textLength="176.4219" x="940" y="219.042">@langchain/langgraph</text></g><!--cluster @langchain/community--><g class="cluster" data-qualified-name=".langchain.community" data-source-line="32" id="ent0018"><path d="M775.5,509.1569 L959.9697,509.1569 A3.75,3.75 0 0 1 962.4697,511.6569 L969.4697,531.4538 L1292.5,531.4538 A2.5,2.5 0 0 1 1295,533.9538 L1295,693.2469 A2.5,2.5 0 0 1 1292.5,695.7469 L775.5,695.7469 A2.5,2.5 0 0 1 773,693.2469 L773,511.6569 A2.5,2.5 0 0 1 775.5,509.1569" fill="#ECEFF1" style="stroke:#000000;stroke-width:1.5;"/><line style="stroke:#000000;stroke-width:1.5;" x1="773" x2="969.4697" y1="531.4538" y2="531.4538"/><text fill="#000000" font-family="sans-serif" font-size="14" font-weight="700" lengthAdjust="spacing" textLength="183.4697" x="777" y="524.152">@langchain/community</text></g><!--entity base_model--><g class="entity" data-qualified-name=".langchain.core.base_model" data-source-line="9" id="ent0003"><rect fill="#F1F1F1" height="36.2969" rx="2.5" ry="2.5" style="stroke:#181818;stroke-width:0.5;" width="165.2158" x="22.39" y="239.0469"/><text fill="#000000" font-family="sans-serif" font-size="14" lengthAdjust="spacing" textLength="145.2158" x="32.39" y="262.042">BaseLanguageModel</text></g><!--entity base_prompt--><g class="entity" data-qualified-name=".langchain.core.base_prompt" data-source-line="10" id="ent0004"><rect fill="#F1F1F1" height="36.2969" rx="2.5" ry="2.5" style="stroke:#181818;stroke-width:0.5;" width="171.1289" x="222.44" y="239.0469"/><text fill="#000000" font-family="sans-serif" font-size="14" lengthAdjust="spacing" textLength="151.1289" x="232.44" y="262.042">BasePromptTemplate</text></g><!--entity base_parser--><g class="entity" data-qualified-name=".langchain.core.base_parser" data-source-line="11" id="ent0005"><rect fill="#F1F1F1" height="36.2969" rx="2.5" ry="2.5" style="stroke:#181818;stroke-width:0.5;" width="147.1621" x="428.42" y="239.0469"/><text fill="#000000" font-family="sans-serif" font-size="14" lengthAdjust="spacing" textLength="127.1621" x="438.42" y="262.042">BaseOutputParser</text></g><!--entity runnable--><g class="entity" data-qualified-name=".langchain.core.runnable" data-source-line="12" id="ent0006"><rect fill="#F1F1F1" height="52.5938" rx="2.5" ry="2.5" style="stroke:#181818;stroke-width:0.5;" width="86.3154" x="559.84" y="377.0269"/><text fill="#000000" font-family="sans-serif" font-size="14" lengthAdjust="spacing" textLength="66.3154" x="569.84" y="400.022">Runnable</text><text fill="#000000" font-family="sans-serif" font-size="14" lengthAdjust="spacing" textLength="62.6787" x="569.84" y="416.3189">Interface</text></g><!--entity messages--><g class="entity" data-qualified-name=".langchain.core.messages" data-source-line="13" id="ent0007"><rect fill="#F1F1F1" height="52.5938" rx="2.5" ry="2.5" style="stroke:#181818;stroke-width:0.5;" width="145.8359" x="610.08" y="230.8969"/><text fill="#000000" font-family="sans-serif" font-size="14" lengthAdjust="spacing" textLength="95.4502" x="620.08" y="253.892">BaseMessage</text><text fill="#000000" font-family="sans-serif" font-size="14" lengthAdjust="spacing" textLength="125.8359" x="620.08" y="270.1889">Human/AI/System</text></g><!--entity openai--><g class="entity" data-qualified-name=".langchain.openai.openai" data-source-line="17" id="ent0009"><rect fill="#F1F1F1" height="36.2969" rx="2.5" ry="2.5" style="stroke:#181818;stroke-width:0.5;" width="103.8154" x="385.09" y="544.1569"/><text fill="#000000" font-family="sans-serif" font-size="14" lengthAdjust="spacing" textLength="83.8154" x="395.09" y="567.152">ChatOpenAI</text></g><!--entity openai_emb--><g class="entity" data-qualified-name=".langchain.openai.openai_emb" data-source-line="18" id="ent0010"><rect fill="#F1F1F1" height="36.2969" rx="2.5" ry="2.5" style="stroke:#181818;stroke-width:0.5;" width="157.7988" x="524.1" y="544.1569"/><text fill="#000000" font-family="sans-serif" font-size="14" lengthAdjust="spacing" textLength="137.7988" x="534.1" y="567.152">OpenAIEmbeddings</text></g><!--entity legacy_chain--><g class="entity" data-qualified-name="langchain.legacy_chain" data-source-line="22" id="ent0012"><rect fill="#F1F1F1" height="52.5938" rx="2.5" ry="2.5" style="stroke:#181818;stroke-width:0.5;" width="87.6689" x="556.17" y="78.2969"/><text fill="#000000" font-family="sans-serif" font-size="14" lengthAdjust="spacing" textLength="67.6689" x="566.17" y="101.292">LLMChain</text><text fill="#000000" font-family="sans-serif" font-size="14" lengthAdjust="spacing" textLength="56.875" x="566.17" y="117.5889">(legacy)</text></g><!--entity legacy_rag--><g class="entity" data-qualified-name="langchain.legacy_rag" data-source-line="23" id="ent0013"><rect fill="#F1F1F1" height="36.2969" rx="2.5" ry="2.5" style="stroke:#181818;stroke-width:0.5;" width="143.4297" x="679.29" y="86.4469"/><text fill="#000000" font-family="sans-serif" font-size="14" lengthAdjust="spacing" textLength="123.4297" x="689.29" y="109.442">RetrievalQAChain</text></g><!--entity stategraph--><g class="entity" data-qualified-name=".langchain.langgraph.stategraph" data-source-line="27" id="ent0015"><rect fill="#F1F1F1" height="36.2969" rx="2.5" ry="2.5" style="stroke:#181818;stroke-width:0.5;" width="100.001" x="952" y="239.0469"/><text fill="#000000" font-family="sans-serif" font-size="14" lengthAdjust="spacing" textLength="80.001" x="962" y="262.042">StateGraph</text></g><!--entity memory_saver--><g class="entity" data-qualified-name=".langchain.langgraph.memory_saver" data-source-line="28" id="ent0016"><rect fill="#F1F1F1" height="36.2969" rx="2.5" ry="2.5" style="stroke:#181818;stroke-width:0.5;" width="117.0566" x="954.47" y="385.1769"/><text fill="#000000" font-family="sans-serif" font-size="14" lengthAdjust="spacing" textLength="97.0566" x="964.47" y="408.172">MemorySaver</text></g><!--entity command--><g class="entity" data-qualified-name=".langchain.langgraph.command" data-source-line="29" id="ent0017"><rect fill="#F1F1F1" height="36.2969" rx="2.5" ry="2.5" style="stroke:#181818;stroke-width:0.5;" width="91.9551" x="1087.02" y="239.0469"/><text fill="#000000" font-family="sans-serif" font-size="14" lengthAdjust="spacing" textLength="71.9551" x="1097.02" y="262.042">Command</text></g><!--entity pinecone--><g class="entity" data-qualified-name=".langchain.community.pinecone" data-source-line="33" id="ent0019"><rect fill="#F1F1F1" height="36.2969" rx="2.5" ry="2.5" style="stroke:#181818;stroke-width:0.5;" width="166.5762" x="1112.71" y="544.1569"/><text fill="#000000" font-family="sans-serif" font-size="14" lengthAdjust="spacing" textLength="146.5762" x="1122.71" y="567.152">PineconeVectorStore</text></g><!--entity chroma--><g class="entity" data-qualified-name=".langchain.community.chroma" data-source-line="34" id="ent0020"><rect fill="#F1F1F1" height="36.2969" rx="2.5" ry="2.5" style="stroke:#181818;stroke-width:0.5;" width="158.1953" x="788.9" y="544.1569"/><text fill="#000000" font-family="sans-serif" font-size="14" lengthAdjust="spacing" textLength="138.1953" x="798.9" y="567.152">ChromaVectorStore</text></g><!--entity pdf_loader--><g class="entity" data-qualified-name=".langchain.community.pdf_loader" data-source-line="35" id="ent0021"><rect fill="#F1F1F1" height="36.2969" rx="2.5" ry="2.5" style="stroke:#181818;stroke-width:0.5;" width="95.4756" x="982.26" y="544.1569"/><text fill="#000000" font-family="sans-serif" font-size="14" lengthAdjust="spacing" textLength="75.4756" x="992.26" y="567.152">PDFLoader</text></g><!--entity web_loader--><g class="entity" data-qualified-name=".langchain.community.web_loader" data-source-line="36" id="ent0022"><rect fill="#F1F1F1" height="36.2969" rx="2.5" ry="2.5" style="stroke:#181818;stroke-width:0.5;" width="187.7197" x="789.14" y="643.4469"/><text fill="#000000" font-family="sans-serif" font-size="14" lengthAdjust="spacing" textLength="167.7197" x="799.14" y="666.442">CheerioWebBaseLoader</text></g><g class="entity" data-qualified-name="GMN33" data-source-line="56" id="ent0034"><path d="M1298.56,383.1869 L1298.56,423.4525 L1615.4434,423.4525 L1615.4434,393.1869 L1605.4434,383.1869 L1298.56,383.1869" fill="#FEFFDD" style="stroke:#181818;stroke-width:0.5;"/><path d="M1605.4434,383.1869 L1605.4434,393.1869 L1615.4434,393.1869 L1605.4434,383.1869" fill="#FEFFDD" style="stroke:#181818;stroke-width:1;"/><text fill="#000000" font-family="sans-serif" font-size="13" font-weight="700" lengthAdjust="spacing" textLength="289.0278" x="1304.56" y="400.2538">LCEL (LangChain Expression Language)</text><text fill="#000000" font-family="sans-serif" font-size="13" lengthAdjust="spacing" textLength="295.8834" x="1304.56" y="415.3866">&#29616;&#20195;&#25512;&#33616;&#35821;&#27861;: chain = prompt | model | parser</text></g><g class="entity" data-qualified-name="GMN36" data-source-line="61" id="ent0037"><path d="M788.22,360.4869 L788.22,446.1509 A0,0 0 0 0 788.22,446.1509 L919.7772,446.1509 A0,0 0 0 0 919.7772,446.1509 L919.7772,370.4869 L909.7772,360.4869 L901.31,360.4869 L984.15,275.5769 L893.31,360.4869 L788.22,360.4869 A0,0 0 0 0 788.22,360.4869" fill="#FEFFDD" style="stroke:#181818;stroke-width:0.5;"/><path d="M909.7772,360.4869 L909.7772,370.4869 L919.7772,370.4869 L909.7772,360.4869" fill="#FEFFDD" style="stroke:#181818;stroke-width:0.5;"/><text fill="#000000" font-family="sans-serif" font-size="13" font-weight="700" lengthAdjust="spacing" textLength="110.5572" x="794.22" y="377.5538">LangGraph &#20248;&#21183;</text><text fill="#000000" font-family="sans-serif" font-size="13" lengthAdjust="spacing" textLength="73.8233" x="794.22" y="392.6866">- &#29366;&#24577;&#25345;&#20037;&#21270;</text><text fill="#000000" font-family="sans-serif" font-size="13" lengthAdjust="spacing" textLength="78.2032" x="794.22" y="407.8194">- &#24490;&#29615;/&#26465;&#20214;&#36793;</text><text fill="#000000" font-family="sans-serif" font-size="13" lengthAdjust="spacing" textLength="60.8233" x="794.22" y="422.9522">- &#20154;&#26426;&#21327;&#21516;</text><text fill="#000000" font-family="sans-serif" font-size="13" lengthAdjust="spacing" textLength="86.3028" x="794.22" y="438.085">- &#22810;Agent&#32534;&#25490;</text></g><!--reverse link base_model to openai--><g class="link" data-entity-1="ent0003" data-entity-2="ent0009" data-link-type="extension" data-source-line="40" id="lnk23"><path d="M137.5733,287.9331 C196.3933,341.6331 359.74,490.7669 418.08,544.0269" fill="none" id="base_model-backto-openai" style="stroke:#181818;stroke-width:1;"/><polygon fill="none" points="124.28,275.7969,133.5279,292.3642,141.6187,283.502,124.28,275.7969" style="stroke:#181818;stroke-width:1;"/></g><!--reverse link base_prompt to runnable--><g class="link" data-entity-1="ent0004" data-entity-2="ent0006" data-link-type="extension" data-source-line="41" id="lnk24"><path d="M360.0522,283.62 C414.4022,310.18 501.3,352.6369 559.73,381.1769" fill="none" id="base_prompt-backto-runnable" style="stroke:#181818;stroke-width:1;"/><polygon fill="none" points="343.88,275.7169,357.4179,289.0107,362.6866,278.2292,343.88,275.7169" style="stroke:#181818;stroke-width:1;"/></g><!--reverse link base_parser to runnable--><g class="link" data-entity-1="ent0005" data-entity-2="ent0006" data-link-type="extension" data-source-line="42" id="lnk25"><path d="M524.5094,290.3181 C542.1394,315.4781 564.55,347.4569 584.98,376.6069" fill="none" id="base_parser-backto-runnable" style="stroke:#181818;stroke-width:1;"/><polygon fill="none" points="514.18,275.5769,519.5957,293.7612,529.4231,286.875,514.18,275.5769" style="stroke:#181818;stroke-width:1;"/></g><!--link runnable to openai--><g class="link" data-entity-1="ent0006" data-entity-2="ent0009" data-link-type="dependency" data-source-line="45" id="lnk26"><path d="M575.96,429.8969 C541.97,462.0369 488.8995,512.2244 459.6495,539.8844" fill="none" id="runnable-to-openai" style="stroke:#181818;stroke-width:1;stroke-dasharray:7,7;"/><polygon fill="#181818" points="455.29,544.0069,464.5775,540.7294,458.9229,540.5715,459.0809,534.9168,455.29,544.0069" style="stroke:#181818;stroke-width:1;"/><text fill="#000000" font-family="sans-serif" font-size="13" lengthAdjust="spacing" textLength="29.7832" x="526" y="489.2238">uses</text></g><!--link runnable to openai_emb--><g class="link" data-entity-1="ent0006" data-entity-2="ent0010" data-link-type="dependency" data-source-line="46" id="lnk27"><path d="M603,429.8969 C603,462.0369 603,510.3469 603,538.0069" fill="none" id="runnable-to-openai_emb" style="stroke:#181818;stroke-width:1;stroke-dasharray:7,7;"/><polygon fill="#181818" points="603,544.0069,607,535.0069,603,539.0069,599,535.0069,603,544.0069" style="stroke:#181818;stroke-width:1;"/><text fill="#000000" font-family="sans-serif" font-size="13" lengthAdjust="spacing" textLength="29.7832" x="604" y="489.2238">uses</text></g><!--link runnable to pinecone--><g class="link" data-entity-1="ent0006" data-entity-2="ent0019" data-link-type="dependency" data-source-line="47" id="lnk28"><path d="M646.43,418.8869 C680.1,429.7269 728.09,444.2269 771,453.6169 C913.17,484.7469 957.86,452.4269 1095,501.1569 C1123.65,511.3369 1148.2661,526.5797 1167.9261,540.4397" fill="none" id="runnable-to-pinecone" style="stroke:#181818;stroke-width:1;stroke-dasharray:7,7;"/><polygon fill="#181818" points="1172.83,543.8969,1167.779,535.4419,1168.7434,541.0159,1163.1694,541.9804,1172.83,543.8969" style="stroke:#181818;stroke-width:1;"/><text fill="#000000" font-family="sans-serif" font-size="13" lengthAdjust="spacing" textLength="29.7832" x="1064" y="489.2238">uses</text></g><!--link stategraph to runnable--><g class="link" data-entity-1="ent0015" data-entity-2="ent0006" data-link-type="dependency" data-source-line="48" id="lnk29"><path d="M951.64,274.4969 C918.87,285.2469 875.27,299.8169 837,313.4869 C770.09,337.3869 698.7897,364.8162 651.9597,383.0862" fill="none" id="stategraph-to-runnable" style="stroke:#181818;stroke-width:1;stroke-dasharray:7,7;"/><polygon fill="#181818" points="646.37,385.2669,656.2083,385.7222,651.0281,383.4496,653.3007,378.2693,646.37,385.2669" style="stroke:#181818;stroke-width:1;"/><text fill="#000000" font-family="sans-serif" font-size="13" lengthAdjust="spacing" textLength="81.7324" x="838" y="326.5538">orchestrates</text></g><!--link stategraph to memory_saver--><g class="link" data-entity-1="ent0015" data-entity-2="ent0016" data-link-type="dependency" data-source-line="49" id="lnk30"><path d="M1003.33,275.5769 C1005.44,303.2769 1009.0928,351.1543 1011.2128,378.8943" fill="none" id="stategraph-to-memory_saver" style="stroke:#181818;stroke-width:1;stroke-dasharray:7,7;"/><polygon fill="#181818" points="1011.67,384.8769,1014.9726,375.5982,1011.289,379.8914,1006.9958,376.2079,1011.67,384.8769" style="stroke:#181818;stroke-width:1;"/><text fill="#000000" font-family="sans-serif" font-size="13" lengthAdjust="spacing" textLength="50.6226" x="1008" y="326.5538">persists</text></g><!--link legacy_chain to base_model--><g class="link" data-entity-1="ent0012" data-entity-2="ent0003" data-link-type="dependency" data-source-line="52" id="lnk31"><path d="M555.95,109.1069 C481.16,116.2769 325.69,136.5369 205,187.8969 C175.01,200.6569 149.3375,219.2143 130.0675,234.8643" fill="none" id="legacy_chain-to-base_model" style="stroke:#181818;stroke-width:1;stroke-dasharray:7,7;"/><polygon fill="#181818" points="125.41,238.6469,134.9179,236.078,129.2912,235.4947,129.8745,229.868,125.41,238.6469" style="stroke:#181818;stroke-width:1;"/><text fill="#000000" font-family="sans-serif" font-size="13" lengthAdjust="spacing" textLength="29.7832" x="268" y="175.9638">uses</text></g><!--link legacy_rag to pinecone--><g class="link" data-entity-1="ent0013" data-entity-2="ent0019" data-link-type="dependency" data-source-line="53" id="lnk32"><path d="M822.88,108.1769 C936.22,113.9269 1148.43,132.0569 1195,187.8969 C1284.27,294.9369 1226.3754,479.9272 1204.8754,538.2472" fill="none" id="legacy_rag-to-pinecone" style="stroke:#181818;stroke-width:1;stroke-dasharray:7,7;"/><polygon fill="#181818" points="1202.8,543.8769,1209.6662,536.816,1204.5295,539.1855,1202.16,534.0488,1202.8,543.8769" style="stroke:#181818;stroke-width:1;"/><text fill="#000000" font-family="sans-serif" font-size="13" lengthAdjust="spacing" textLength="29.7832" x="1243" y="326.5538">uses</text></g><!--link runnable to GMN33--><g class="link" data-entity-1="ent0006" data-entity-2="ent0034" data-link-type="association" data-source-line="56" id="lnk35"><path d="M646.62,378.0069 C683.16,358.3569 737.39,332.6969 788.5,321.9869 C991.21,279.5069 1051.15,282.6769 1254.5,321.9869 C1314.39,333.5669 1379.04,362.7469 1418.78,382.8169" fill="none" id="runnable-GMN33" style="stroke:#181818;stroke-width:1;stroke-dasharray:7,7;"/></g><?plantuml-src TLHXInH16Fw-lsBI3wcW9YAKL7HTkoQSQPxKXunZRlTrNToTMMRch2E3f8GKDGcog8IYm0ZAG9BqHF_CxPu_ezdPtTlLp4FOUPzdtlUPztrcBbWmun10atfngd1dfAGZqyMSQngVSuYF6VPG5PjpDgCrOXMfIndgDFJebsEOrFCf0IBAeku2Oc0AJ6mND4quGWPASbMSnGv1KtKVoYPpV872Jt-2u-UjnejcOozOsctjDe8FHvhcoshO1jHnmvMxp6XNlqaPTA1EVS0OCdJqH4Foxy5Dp25AN9FiCMg1-n1XBiLog7ZHCcDDCAbFJ87dkrX0HlDLFEEDruHV4nEOSM0vbbh7hCaQ8RZgmZGP9GBO33RZT2o9Pxd6W7CfR9hShdcOz1T6-yjrBi1JT2y6kVRq_FDI7mXseXDVDeRqA-c9PGl5k8GAeofBp8gXEAnxLR0iXzWyHwY0LprLg5r75Z0COr2_b1OebSRKcAP9bmisDklTAa_yNL5xaZw0O0xCO_TkGMt8qnYs_tUkwCjcs9-DAW_gGyPGMhaiv6H68aYbuj5ICMDu33pAwcKydmp6K-iAZm99RwWd-smfr8o__wSYWcl44VMemKNTC0PI5HFo9fZIoFUaWIaho_zul7uIJySWVOFFSamLJVBSCaeKMubOtvgfk6gPxWTW3hqFLMNXZFW8gYbHIh-8MetjSFaulXjQPcnqTQ6tDvr-piXnl6t5d7dF839rysZhvFTcaZe5K5_VzIGl6aOrBWrw3XJvwLmuxL8APaDKS9ixZ2WpPu4B9l5_QFdHIgeFZ3jSy4Xq-7QxjVmoM3eCVkvhULEgZRa69G8oGvwhJoDKoCVAiMS5eZFvEzpJKohg9TILlLlwOv_9I-jGWj8tfxkdHr9Rwx-QZI_X-hUJjOsJdH_XxfjX56kwXfAnBA1OrG9AdX8W5efg9mggL0ZgHH9EsLwAa9NKdK3DmtV1oh4gs8jQAtlXiyLmTR6vlnIiRgfOSFIzjRxJ7svzbg_foT6-2ZOF3iAF1y7Qgs1ZDMPzVL-mvJFTEjmCrr-tTVm5?></g></svg>