<svg xmlns="http://www.w3.org/2000/svg" xmlns:xlink="http://www.w3.org/1999/xlink" contentStyleType="text/css" data-diagram-type="STATE" height="741px" preserveAspectRatio="none" style="width:1174px;height:741px;background:#FEFEFE;" version="1.1" viewBox="0 0 1174 741" width="1174px" zoomAndPan="magnify"><?plantuml 1.2026.3beta6?><defs/><g><rect fill="#FEFEFE" height="741" style="stroke:none;stroke-width:1;" width="1174" x="0" y="0"/><g class="title" data-source-line="4"><text fill="#000000" font-family="sans-serif" font-size="14" font-weight="700" lengthAdjust="spacing" textLength="203.061" x="481.9695" y="22.9951">LangGraph &#29366;&#24577;&#26426;&#19982;&#33410;&#28857;&#27969;&#36716;</text></g><path d="M246.5,450.2969 L307.5,450.2969 A12.5,12.5 0 0 1 320,462.7969 L320,470.2969 L234,470.2969 L234,462.7969 A12.5,12.5 0 0 1 246.5,450.2969" fill="#E1F5FE"/><rect fill="none" height="150" rx="12.5" ry="12.5" style="stroke:#181818;stroke-width:0.5;" width="86" x="234" y="450.2969"/><line style="stroke:#181818;stroke-width:0.5;" x1="234" x2="320" y1="470.2969" y2="470.2969"/><text fill="#000000" font-family="sans-serif" font-size="14" lengthAdjust="spacing" textLength="0" x="277" y="455.2969">Start</text><g class="entity" data-qualified-name="start.initialize" id="ent0003"><rect fill="#E1F5FE" height="50" rx="12.5" ry="12.5" style="stroke:#181818;stroke-width:0.5;" width="50" x="246" y="537.2969"/><line style="stroke:#181818;stroke-width:0.5;" x1="246" x2="296" y1="557.2969" y2="557.2969"/><text fill="#000000" font-family="sans-serif" font-size="14" lengthAdjust="spacing" textLength="0" x="271" y="542.2969">initialize</text><text fill="#000000" font-family="sans-serif" font-size="12" lengthAdjust="spacing" textLength="0" x="251" y="562.2969">&#21021;&#22987;&#21270; State</text><text fill="#000000" font-family="sans-serif" font-size="12" lengthAdjust="spacing" textLength="0" x="251" y="572.2969">messages: []</text></g><g class="start_entity" data-qualified-name="start..start.start" data-source-line="9" id="ent0005"><ellipse cx="271" cy="491.2969" fill="#222222" rx="10" ry="10" style="stroke:#222222;stroke-width:1;"/></g><!--link *start*start to initialize--><g class="link" data-entity-1="ent0005" data-entity-2="ent0003" data-link-type="dependency" data-source-line="9" id="lnk6"><path d="M271,501.6069 C271,510.6469 271,518.7869 271,531.0269" fill="none" id="*start*start-to-initialize" style="stroke:#181818;stroke-width:1;"/><polygon fill="#181818" points="271,537.0269,275,528.0269,271,532.0269,267,528.0269,271,537.0269" style="stroke:#181818;stroke-width:1;"/></g><path d="M62.6,44.2969 L171.4018,44.2969 A12.5,12.5 0 0 1 183.9018,56.7969 L183.9018,64.2969 L50.1,64.2969 L50.1,56.7969 A12.5,12.5 0 0 1 62.6,44.2969" fill="#E1F5FE"/><rect fill="none" height="329" rx="12.5" ry="12.5" style="stroke:#181818;stroke-width:0.5;" width="133.8018" x="50.1" y="44.2969"/><line style="stroke:#181818;stroke-width:0.5;" x1="50.1" x2="183.9018" y1="64.2969" y2="64.2969"/><text fill="#000000" font-family="sans-serif" font-size="14" lengthAdjust="spacing" textLength="0" x="117.0009" y="49.2969">Agent</text><g class="entity" data-qualified-name="agent.call_model" id="ent0005"><rect fill="#E1F5FE" height="50" rx="12.5" ry="12.5" style="stroke:#181818;stroke-width:0.5;" width="50" x="62.1" y="132.2969"/><line style="stroke:#181818;stroke-width:0.5;" x1="62.1" x2="112.1" y1="152.2969" y2="152.2969"/><text fill="#000000" font-family="sans-serif" font-size="14" lengthAdjust="spacing" textLength="0" x="87.1" y="137.2969">call_model</text><text fill="#000000" font-family="sans-serif" font-size="12" lengthAdjust="spacing" textLength="0" x="67.1" y="157.2969">&#35843;&#29992; LLM</text><text fill="#000000" font-family="sans-serif" font-size="12" lengthAdjust="spacing" textLength="0" x="67.1" y="167.2969">&#29983;&#25104;&#21709;&#24212;/&#20915;&#31574;</text></g><g class="entity" data-qualified-name="agent.decision" id="ent0006"><rect fill="#E1F5FE" height="50" rx="12.5" ry="12.5" style="stroke:#181818;stroke-width:0.5;" width="50" x="62.1" y="235.2969"/><line style="stroke:#181818;stroke-width:0.5;" x1="62.1" x2="112.1" y1="255.2969" y2="255.2969"/><text fill="#000000" font-family="sans-serif" font-size="14" lengthAdjust="spacing" textLength="0" x="87.1" y="240.2969">should_continue</text><text fill="#000000" font-family="sans-serif" font-size="12" lengthAdjust="spacing" textLength="0" x="67.1" y="260.2969">&#21028;&#26029;&#26159;&#21542;&#38656;&#35201;</text><text fill="#000000" font-family="sans-serif" font-size="12" lengthAdjust="spacing" textLength="0" x="67.1" y="270.2969">&#35843;&#29992;&#24037;&#20855;</text></g><g class="start_entity" data-qualified-name="agent..start.agent" data-source-line="19" id="ent0009"><ellipse cx="87.1" cy="85.2969" fill="#222222" rx="10" ry="10" style="stroke:#222222;stroke-width:1;"/></g><g class="end_entity" data-qualified-name="agent..end.agent" data-source-line="22" id="ent0013"><ellipse cx="87.1" cy="349.2969" fill="none" rx="11" ry="11" style="stroke:#222222;stroke-width:1;"/><ellipse cx="87.1" cy="349.2969" fill="#222222" rx="6" ry="6" style="stroke:#222222;stroke-width:1;"/></g><!--link *start*agent to call_model--><g class="link" data-entity-1="ent0009" data-entity-2="ent0005" data-link-type="dependency" data-source-line="19" id="lnk10"><path d="M87.1,95.7369 C87.1,104.9969 87.1,113.4869 87.1,125.9769" fill="none" id="*start*agent-to-call_model" style="stroke:#181818;stroke-width:1;"/><polygon fill="#181818" points="87.1,131.9769,91.1,122.9769,87.1,126.9769,83.1,122.9769,87.1,131.9769" style="stroke:#181818;stroke-width:1;"/></g><!--link call_model to decision--><g class="link" data-entity-1="ent0005" data-entity-2="ent0006" data-link-type="dependency" data-source-line="20" id="lnk11"><path d="M85.74,182.7169 C85.47,188.4869 85.24,194.6069 85.1,200.2969 C84.83,211.6669 84.9047,218.2827 85.3747,228.9027" fill="none" id="call_model-to-decision" style="stroke:#181818;stroke-width:1;"/><polygon fill="#181818" points="85.64,234.8969,89.2382,225.7288,85.4189,229.9018,81.246,226.0825,85.64,234.8969" style="stroke:#181818;stroke-width:1;"/></g><!--link decision to call_model--><g class="link" data-entity-1="ent0006" data-entity-2="ent0005" data-link-type="dependency" data-source-line="21" id="lnk12"><path d="M87.1,235.0769 C87.1,219.2369 87.1,204.6269 87.1,188.7469" fill="none" id="decision-to-call_model" style="stroke:#181818;stroke-width:1;"/><polygon fill="#181818" points="87.1,182.7469,83.1,191.7469,87.1,187.7469,91.1,191.7469,87.1,182.7469" style="stroke:#181818;stroke-width:1;"/><text fill="#000000" font-family="sans-serif" font-size="13" lengthAdjust="spacing" textLength="70.8018" x="88.1" y="213.3638">continue (&#38656;&#24037;&#20855;)</text></g><!--link decision to *end*agent--><g class="link" data-entity-1="ent0006" data-entity-2="ent0013" data-link-type="dependency" data-source-line="22" id="lnk14"><path d="M87.1,285.5269 C87.1,302.8269 87.1,319.2169 87.1,332.0469" fill="none" id="decision-to-*end*agent" style="stroke:#181818;stroke-width:1;"/><polygon fill="#181818" points="87.1,338.0469,91.1,329.0469,87.1,333.0469,83.1,329.0469,87.1,338.0469" style="stroke:#181818;stroke-width:1;"/><text fill="#000000" font-family="sans-serif" font-size="13" lengthAdjust="spacing" textLength="64.7652" x="88.1" y="316.3638">end (&#30452;&#25509;&#22238;&#31572;)</text></g><path d="M845.27,133.7969 L1076.7272,133.7969 A12.5,12.5 0 0 1 1089.2272,146.2969 L1089.2272,153.7969 L832.77,153.7969 L832.77,146.2969 A12.5,12.5 0 0 1 845.27,133.7969" fill="#E1F5FE"/><rect fill="none" height="150" rx="12.5" ry="12.5" style="stroke:#181818;stroke-width:0.5;" width="256.4572" x="832.77" y="133.7969"/><line style="stroke:#181818;stroke-width:0.5;" x1="832.77" x2="1089.2272" y1="153.7969" y2="153.7969"/><text fill="#000000" font-family="sans-serif" font-size="14" lengthAdjust="spacing" textLength="0" x="960.9986" y="138.7969">Tools</text><g class="entity" data-qualified-name="tools.search" id="ent0008"><rect fill="#E1F5FE" height="50" rx="12.5" ry="12.5" style="stroke:#181818;stroke-width:0.5;" width="50" x="844.77" y="220.7969"/><line style="stroke:#181818;stroke-width:0.5;" x1="844.77" x2="894.77" y1="240.7969" y2="240.7969"/><text fill="#000000" font-family="sans-serif" font-size="14" lengthAdjust="spacing" textLength="0" x="869.77" y="225.7969">search</text><text fill="#000000" font-family="sans-serif" font-size="12" lengthAdjust="spacing" textLength="0" x="849.77" y="245.7969">Tavily &#25628;&#32034;</text></g><g class="entity" data-qualified-name="tools.calc" id="ent0009"><rect fill="#E1F5FE" height="50" rx="12.5" ry="12.5" style="stroke:#181818;stroke-width:0.5;" width="50" x="912.77" y="220.7969"/><line style="stroke:#181818;stroke-width:0.5;" x1="912.77" x2="962.77" y1="240.7969" y2="240.7969"/><text fill="#000000" font-family="sans-serif" font-size="14" lengthAdjust="spacing" textLength="0" x="937.77" y="225.7969">calculator</text><text fill="#000000" font-family="sans-serif" font-size="12" lengthAdjust="spacing" textLength="0" x="917.77" y="245.7969">&#35745;&#31639;&#24037;&#20855;</text></g><g class="entity" data-qualified-name="tools.db" id="ent0010"><rect fill="#E1F5FE" height="50" rx="12.5" ry="12.5" style="stroke:#181818;stroke-width:0.5;" width="84.9072" x="980.32" y="220.7969"/><line style="stroke:#181818;stroke-width:0.5;" x1="980.32" x2="1065.2272" y1="247.0938" y2="247.0938"/><text fill="#000000" font-family="sans-serif" font-size="14" lengthAdjust="spacing" textLength="64.9072" x="990.32" y="242.0938">database</text><text fill="#000000" font-family="sans-serif" font-size="12" lengthAdjust="spacing" textLength="0" x="985.32" y="252.0938">&#25968;&#25454;&#24211;&#26597;&#35810;</text></g><g class="start_entity" data-qualified-name="tools..start.tools" data-source-line="32" id="ent0017"><ellipse cx="937.77" cy="174.7969" fill="#222222" rx="10" ry="10" style="stroke:#222222;stroke-width:1;"/></g><!--link *start*tools to search--><g class="link" data-entity-1="ent0017" data-entity-2="ent0008" data-link-type="dependency" data-source-line="32" id="lnk18"><path d="M931,182.6669 C922.33,191.4569 911.0607,202.8925 897.8407,216.3125" fill="none" id="*start*tools-to-search" style="stroke:#181818;stroke-width:1;"/><polygon fill="#181818" points="893.63,220.5869,902.7956,216.9824,897.1389,217.0249,897.0964,211.3682,893.63,220.5869" style="stroke:#181818;stroke-width:1;"/></g><!--link *start*tools to calc--><g class="link" data-entity-1="ent0017" data-entity-2="ent0009" data-link-type="dependency" data-source-line="33" id="lnk19"><path d="M937.77,185.1069 C937.77,194.1469 937.77,202.2869 937.77,214.5269" fill="none" id="*start*tools-to-calc" style="stroke:#181818;stroke-width:1;"/><polygon fill="#181818" points="937.77,220.5269,941.77,211.5269,937.77,215.5269,933.77,211.5269,937.77,220.5269" style="stroke:#181818;stroke-width:1;"/></g><!--link *start*tools to db--><g class="link" data-entity-1="ent0017" data-entity-2="ent0010" data-link-type="dependency" data-source-line="34" id="lnk20"><path d="M945.31,181.9169 C955.88,190.4969 971.0315,202.7956 987.9715,216.5456" fill="none" id="*start*tools-to-db" style="stroke:#181818;stroke-width:1;"/><polygon fill="#181818" points="992.63,220.3269,988.1631,211.5493,988.7479,217.1758,983.1213,217.7606,992.63,220.3269" style="stroke:#181818;stroke-width:1;"/></g><path d="M695,80.2969 L785.0001,80.2969 A12.5,12.5 0 0 1 797.5001,92.7969 L797.5001,100.2969 L682.5,100.2969 L682.5,92.7969 A12.5,12.5 0 0 1 695,80.2969" fill="#E1F5FE"/><rect fill="none" height="257" rx="12.5" ry="12.5" style="stroke:#181818;stroke-width:0.5;" width="115.0001" x="682.5" y="80.2969"/><line style="stroke:#181818;stroke-width:0.5;" x1="682.5" x2="797.5001" y1="100.2969" y2="100.2969"/><text fill="#000000" font-family="sans-serif" font-size="14" lengthAdjust="spacing" textLength="0" x="740" y="85.2969">Interrupt</text><g class="start_entity" data-qualified-name="interrupt..start.interrupt" data-source-line="42" id="ent0024"><ellipse cx="719.5" cy="121.2969" fill="#222222" rx="10" ry="10" style="stroke:#222222;stroke-width:1;"/></g><g class="entity" data-qualified-name="interrupt.wait_for_human" id="ent0025"><rect fill="#E1F5FE" height="50" rx="12.5" ry="12.5" style="stroke:#181818;stroke-width:0.5;" width="50" x="694.5" y="199.2969"/><line style="stroke:#181818;stroke-width:0.5;" x1="694.5" x2="744.5" y1="219.2969" y2="219.2969"/><text fill="#000000" font-family="sans-serif" font-size="14" lengthAdjust="spacing" textLength="0" x="719.5" y="204.2969">wait_for_human</text></g><g class="end_entity" data-qualified-name="interrupt..end.interrupt" data-source-line="43" id="ent0027"><ellipse cx="719.5" cy="313.2969" fill="none" rx="11" ry="11" style="stroke:#222222;stroke-width:1;"/><ellipse cx="719.5" cy="313.2969" fill="#222222" rx="6" ry="6" style="stroke:#222222;stroke-width:1;"/></g><!--link *start*interrupt to wait_for_human--><g class="link" data-entity-1="ent0024" data-entity-2="ent0025" data-link-type="dependency" data-source-line="42" id="lnk26"><path d="M719.5,131.6169 C719.5,146.7569 719.5,171.1769 719.5,192.8169" fill="none" id="*start*interrupt-to-wait_for_human" style="stroke:#181818;stroke-width:1;"/><polygon fill="#181818" points="719.5,198.8169,723.5,189.8169,719.5,193.8169,715.5,189.8169,719.5,198.8169" style="stroke:#181818;stroke-width:1;"/><text fill="#000000" font-family="sans-serif" font-size="13" lengthAdjust="spacing" textLength="13" x="740" y="162.3638">&#26242;&#20572;&#31561;&#24453;</text><text fill="#000000" font-family="sans-serif" font-size="13" lengthAdjust="spacing" textLength="52.0001" x="720.5" y="177.4966">&#29992;&#25143;&#36755;&#20837;</text></g><!--link wait_for_human to *end*interrupt--><g class="link" data-entity-1="ent0025" data-entity-2="ent0027" data-link-type="dependency" data-source-line="43" id="lnk28"><path d="M719.5,249.5269 C719.5,266.8269 719.5,283.2169 719.5,296.0469" fill="none" id="wait_for_human-to-*end*interrupt" style="stroke:#181818;stroke-width:1;"/><polygon fill="#181818" points="719.5,302.0469,723.5,293.0469,719.5,297.0469,715.5,293.0469,719.5,302.0469" style="stroke:#181818;stroke-width:1;"/><text fill="#000000" font-family="sans-serif" font-size="13" lengthAdjust="spacing" textLength="0" x="720.5" y="280.3638">&#25910;&#21040;&#30830;&#35748;</text></g><g class="start_entity" data-qualified-name=".start." data-source-line="6" id="ent0002"><ellipse cx="1134" cy="208.7969" fill="#222222" rx="10" ry="10" style="stroke:#222222;stroke-width:1;"/></g><g class="entity" data-qualified-name="Start" id="ent0003"><rect fill="#E1F5FE" height="50" rx="12.5" ry="12.5" style="stroke:#181818;stroke-width:0.5;" width="50" x="1109" y="500.2969"/><line style="stroke:#181818;stroke-width:0.5;" x1="1109" x2="1159" y1="520.2969" y2="520.2969"/><text fill="#000000" font-family="sans-serif" font-size="14" lengthAdjust="spacing" textLength="0" x="1134" y="505.2969">Start</text></g><g class="entity" data-qualified-name="Agent" id="ent0007"><rect fill="#E1F5FE" height="50" rx="12.5" ry="12.5" style="stroke:#181818;stroke-width:0.5;" width="50" x="158" y="677.2969"/><line style="stroke:#181818;stroke-width:0.5;" x1="158" x2="208" y1="697.2969" y2="697.2969"/><text fill="#000000" font-family="sans-serif" font-size="14" lengthAdjust="spacing" textLength="0" x="183" y="682.2969">Agent</text></g><g class="entity" data-qualified-name="Tools" id="ent0015"><rect fill="#E1F5FE" height="50" rx="12.5" ry="12.5" style="stroke:#181818;stroke-width:0.5;" width="50" x="7" y="500.2969"/><line style="stroke:#181818;stroke-width:0.5;" x1="7" x2="57" y1="520.2969" y2="520.2969"/><text fill="#000000" font-family="sans-serif" font-size="14" lengthAdjust="spacing" textLength="0" x="32" y="505.2969">Tools</text></g><g class="entity" data-qualified-name="Interrupt" id="ent0022"><rect fill="#E1F5FE" height="50" rx="12.5" ry="12.5" style="stroke:#181818;stroke-width:0.5;" width="50" x="92" y="500.2969"/><line style="stroke:#181818;stroke-width:0.5;" x1="92" x2="142" y1="520.2969" y2="520.2969"/><text fill="#000000" font-family="sans-serif" font-size="14" lengthAdjust="spacing" textLength="0" x="117" y="505.2969">Interrupt</text></g><g class="end_entity" data-qualified-name=".end." data-source-line="48" id="ent0030"><ellipse cx="188" cy="525.2969" fill="none" rx="11" ry="11" style="stroke:#222222;stroke-width:1;"/><ellipse cx="188" cy="525.2969" fill="#222222" rx="6" ry="6" style="stroke:#222222;stroke-width:1;"/></g><g class="entity" data-qualified-name="GMN2" data-source-line="51" id="ent0003"><path d="M219.23,150.8369 L219.23,204.7969 L184.19,208.7969 L219.23,212.7969 L219.23,266.7666 A0,0 0 0 0 219.23,266.7666 L444.7642,266.7666 A0,0 0 0 0 444.7642,266.7666 L444.7642,160.8369 L434.7642,150.8369 L219.23,150.8369 A0,0 0 0 0 219.23,150.8369" fill="#FEFFDD" style="stroke:#181818;stroke-width:0.5;"/><path d="M434.7642,150.8369 L434.7642,160.8369 L444.7642,160.8369 L434.7642,150.8369" fill="#FEFFDD" style="stroke:#181818;stroke-width:0.5;"/><text fill="#000000" font-family="sans-serif" font-size="13" font-weight="700" lengthAdjust="spacing" textLength="75.1055" x="225.23" y="167.9038">State &#32467;&#26500;:</text><text fill="#000000" font-family="sans-serif" font-size="13" lengthAdjust="spacing" textLength="8.271" x="225.23" y="183.0366">{</text><text fill="#000000" font-family="sans-serif" font-size="13" lengthAdjust="spacing" textLength="176.6172" x="233.4946" y="198.1694">messages: BaseMessage[],</text><text fill="#000000" font-family="sans-serif" font-size="13" lengthAdjust="spacing" textLength="196.2695" x="233.4946" y="213.3022">next: "agent" | "tools" | "end",</text><text fill="#000000" font-family="sans-serif" font-size="13" lengthAdjust="spacing" textLength="118.3013" x="233.4946" y="228.435">iteration: number,</text><text fill="#000000" font-family="sans-serif" font-size="13" lengthAdjust="spacing" textLength="172.9482" x="233.4946" y="243.5678">context: Record&lt;string, any&gt;</text><text fill="#000000" font-family="sans-serif" font-size="13" lengthAdjust="spacing" textLength="8.271" x="225.23" y="258.7006">}</text></g><g class="entity" data-qualified-name="GMN5" data-source-line="61" id="ent0006"><path d="M480.23,173.5269 L480.23,244.0581 A0,0 0 0 0 480.23,244.0581 L647.772,244.0581 A0,0 0 0 0 647.772,244.0581 L647.772,212.7969 L682.28,208.7969 L647.772,204.7969 L647.772,183.5269 L637.772,173.5269 L480.23,173.5269 A0,0 0 0 0 480.23,173.5269" fill="#FEFFDD" style="stroke:#181818;stroke-width:0.5;"/><path d="M637.772,173.5269 L637.772,183.5269 L647.772,183.5269 L637.772,173.5269" fill="#FEFFDD" style="stroke:#181818;stroke-width:0.5;"/><text fill="#000000" font-family="sans-serif" font-size="13" font-weight="700" lengthAdjust="spacing" textLength="146.542" x="486.23" y="190.5938">Human-in-the-Loop:</text><text fill="#000000" font-family="sans-serif" font-size="13" lengthAdjust="spacing" textLength="34.8233" x="486.23" y="205.7266">- &#25935;&#24863;&#25805;&#20316;&#30830;&#35748;</text><text fill="#000000" font-family="sans-serif" font-size="13" lengthAdjust="spacing" textLength="47.8233" x="486.23" y="220.8594">- &#39044;&#31639;&#36229;&#38480;&#26816;&#26597;</text><text fill="#000000" font-family="sans-serif" font-size="13" lengthAdjust="spacing" textLength="8.8232" x="486.23" y="235.9922">- &#20869;&#23481;&#23457;&#26680;</text></g><!--link *start* to Start--><g class="link" data-entity-1="ent0002" data-entity-2="ent0003" data-link-type="dependency" data-source-line="6" id="lnk4"><path d="M1134,219.2069 C1134,261.6269 1134,429.7169 1134,494.1669" fill="none" id="*start*-to-Start" style="stroke:#181818;stroke-width:1;"/><polygon fill="#181818" points="1134,500.1669,1138,491.1669,1134,495.1669,1130,491.1669,1134,500.1669" style="stroke:#181818;stroke-width:1;"/></g><!--link start to Agent--><g class="link" data-entity-1="ent0002" data-entity-2="ent0007" data-link-type="dependency" data-source-line="13" id="lnk8"><path d="M237,600.7669 C222.31,628.1169 209.519,651.9211 198.879,671.7311" fill="none" id="start-to-Agent" style="stroke:#181818;stroke-width:1;"/><polygon fill="#181818" points="196.04,677.0169,203.8224,670.9808,198.4059,672.612,196.7747,667.1955,196.04,677.0169" style="stroke:#181818;stroke-width:1;"/><text fill="#000000" font-family="sans-serif" font-size="13" lengthAdjust="spacing" textLength="26" x="220" y="643.3638">&#24320;&#22987;&#22788;&#29702;</text></g><!--link agent to Tools--><g class="link" data-entity-1="ent0004" data-entity-2="ent0015" data-link-type="dependency" data-source-line="25" id="lnk16"><path d="M72.76,373.4969 C59.36,423.0469 47.766,465.9548 40.166,494.0648" fill="none" id="agent-to-Tools" style="stroke:#181818;stroke-width:1;"/><polygon fill="#181818" points="38.6,499.8569,44.8103,492.2128,39.905,495.0302,37.0876,490.1248,38.6,499.8569" style="stroke:#181818;stroke-width:1;"/><text fill="#000000" font-family="sans-serif" font-size="13" lengthAdjust="spacing" textLength="0" x="66" y="416.3638">&#38656;&#35201;&#24037;&#20855;&#25191;&#34892;</text></g><!--link Tools to Agent--><g class="link" data-entity-1="ent0015" data-entity-2="ent0007" data-link-type="dependency" data-source-line="37" id="lnk21"><path d="M26.22,550.6969 C21.45,577.1569 18.41,619.3469 39,647.2969 C66.87,685.1269 118.5109,695.859 151.8009,699.249" fill="none" id="Tools-to-Agent" style="stroke:#181818;stroke-width:1;"/><polygon fill="#181818" points="157.77,699.8569,149.2215,694.9657,152.7957,699.3503,148.4111,702.9245,157.77,699.8569" style="stroke:#181818;stroke-width:1;"/><text fill="#000000" font-family="sans-serif" font-size="13" lengthAdjust="spacing" textLength="109.294" x="40" y="643.3638">&#36820;&#22238; Observation</text></g><!--link agent to Interrupt--><g class="link" data-entity-1="ent0004" data-entity-2="ent0022" data-link-type="dependency" data-source-line="39" id="lnk23"><path d="M117,373.4969 C117,423.0469 117,465.7469 117,493.8569" fill="none" id="agent-to-Interrupt" style="stroke:#181818;stroke-width:1;"/><polygon fill="#181818" points="117,499.8569,121,490.8569,117,494.8569,113,490.8569,117,499.8569" style="stroke:#181818;stroke-width:1;"/><text fill="#000000" font-family="sans-serif" font-size="13" lengthAdjust="spacing" textLength="13" x="118" y="416.3638">&#38656;&#35201;&#20154;&#24037;&#30830;&#35748;</text></g><!--link Interrupt to Agent--><g class="link" data-entity-1="ent0022" data-entity-2="ent0007" data-link-type="dependency" data-source-line="46" id="lnk29"><path d="M126.18,550.6269 C138.75,583.9669 159.094,637.8924 171.674,671.2724" fill="none" id="Interrupt-to-Agent" style="stroke:#181818;stroke-width:1;"/><polygon fill="#181818" points="173.79,676.8869,174.3591,667.0545,172.0267,672.2081,166.8731,669.8757,173.79,676.8869" style="stroke:#181818;stroke-width:1;"/><text fill="#000000" font-family="sans-serif" font-size="13" lengthAdjust="spacing" textLength="0" x="163" y="643.3638">&#32487;&#32493;&#25191;&#34892;</text></g><!--link agent to *end*--><g class="link" data-entity-1="ent0004" data-entity-2="ent0030" data-link-type="dependency" data-source-line="48" id="lnk31"><path d="M153.96,373.4969 C167.43,433.1969 179.3085,485.8042 184.4385,508.5242" fill="none" id="agent-to-*end*" style="stroke:#181818;stroke-width:1;"/><polygon fill="#181818" points="185.76,514.3769,187.6795,504.7169,184.6588,509.4997,179.876,506.4789,185.76,514.3769" style="stroke:#181818;stroke-width:1;"/><text fill="#000000" font-family="sans-serif" font-size="13" lengthAdjust="spacing" textLength="39" x="165" y="416.3638">&#29983;&#25104;&#26368;&#32456;&#22238;&#31572;</text></g><?plantuml-src NLDRJnD167tVNp6fBz3G61zyQOo9652J4XFb3KWptGxjXkriipj5KKaAjgGWO9DMl5318WKUR24HkHJ1FyFCBl_2kRIxBTcNdPdpdUzyPyuuCmREGXjcG0BgCodRok7aOykqR71dT4HyckCZ70896huD6xatUf_3D68G4u4OnAadDiocWRjoml8BhDQ-FbltLXRTnNFsPy6x_ALf4-4f48ay12y9j8ccILeGagiGW8xeOnFmLWEWYpImGGne6cyGtmmM80fewJlT_q1NDmGRGPCuWnm7ff0J1HDJshnavsI2v54AOI9A_kP5oMx1BI_vtUMXx0ubJ7Jl7EdGDECPAubCUHuiEPTtzDwj7e1OR6mIkzLjLYhJoXfjL-_IfTzkSoCWST9Mpap6TGiJ0-UGP4eYtN0C2yinTjb6atqvfEMzcrhUsrkOn8gRdZPeyPGJzTWHIE2RFNh4MPUKd_Zy_JMyNLS66E3DL8V1smMYMHGWd0G3xkOnMs_GpIstMHqKfYgF16hSiao7uvHeHSMMzxtwgc-jXCY1YGJtMEiWQEjfTUdobpEDmrd3d0EiN7EFT_fkGS-Pa5XsznPquN-hxhO--nvri4b8O08w7PSJ7CS-7R6r5crNs7R3EzpfjrErxlTNxrac4s9cDMblaBn_LUu9U9vma3qBYJ2znvbdc23RpcM9xyvrkysLklMMrzhrtV5XKgpX5_N6_nKqI7pQikFfN0QAkB1lYtIXvZQNwLLH1E-0bKwzgmejDdZLBNHmbwnwGaj7dVvyea1XxrJknRvxqUpUOJ2Fub0XPxMyUr5IWT0qRF51R2EL9i2QLk-7omY7vOlaV1MsLOY6mtnF30L0y4I7-IMDgTN4r90ynEWrYO8GLE_n7GWH5H_-nxCOKY232vU6Hm7EPHB8LjiYrhBy1T8jE_d08RQ1KqC0uhc7732lYJGBjHtD9fgMadtNfUodmhQ8WICaZI8noyegxH4Uee-iiCqgQzUNjOwBOljcfy0pw9qKRxwMsSyyJvZSfaj5sZgdhJhxSUOt_Wy0?></g></svg>